<?xml version="1.0" standalone="no"?>
<!DOCTYPE svg PUBLIC "-//W3C//DTD SVG 20010904//EN"
 "http://www.w3.org/TR/2001/REC-SVG-20010904/DTD/svg10.dtd">
<svg version="1.0" xmlns="http://www.w3.org/2000/svg"
 width="1020.000000pt" height="1020.000000pt" viewBox="0 0 1020.000000 1020.000000"
 preserveAspectRatio="xMidYMid meet">
<metadata>
Created by potrace 1.11, written by Peter Selinger 2001-2013
</metadata>
<g transform="translate(0.000000,1020.000000) scale(0.100000,-0.100000)"
fill="#000000" stroke="none">
<path d="M4675 8005 c-1580 -157 -3095 -1082 -4583 -2798 l-93 -107 92 -106
c1422 -1634 2857 -2550 4336 -2769 296 -44 762 -59 1048 -35 1231 106 2428
687 3620 1759 292 263 717 702 1039 1074 l67 77 -67 78 c-322 372 -749 813
-1039 1073 -1196 1074 -2389 1653 -3620 1759 -163 13 -640 11 -800 -5z m841
-450 c1433 -137 2788 -930 3979 -2329 l107 -126 -107 -126 c-704 -827 -1445
-1427 -2257 -1830 -582 -288 -1169 -454 -1785 -505 -181 -15 -704 -6 -863 15
-603 78 -1091 225 -1630 492 -805 398 -1554 1005 -2254 1828 l-107 126 78 92
c264 313 620 681 873 902 732 642 1468 1062 2268 1296 249 73 567 135 817 159
61 6 124 13 140 15 94 10 598 4 741 -9z"/>
<path d="M4885 7190 c-401 -46 -764 -192 -1075 -434 -95 -74 -272 -249 -349
-346 -229 -288 -367 -596 -432 -965 -31 -173 -33 -492 -5 -660 78 -472 278
-860 613 -1185 122 -120 200 -183 323 -263 733 -475 1694 -443 2397 81 112 84
295 262 383 372 229 288 372 613 437 995 24 144 24 481 -1 630 -62 379 -206
705 -437 996 -93 117 -295 310 -410 391 -271 193 -557 312 -884 369 -137 23
-431 33 -560 19z m386 -301 c789 -80 1426 -650 1589 -1420 99 -469 2 -966
-268 -1370 -220 -328 -532 -569 -905 -698 -534 -184 -1116 -108 -1588 207
-328 219 -577 544 -700 912 -129 388 -129 773 0 1160 98 292 280 566 511 768
375 328 876 491 1361 441z"/>
<path d="M4600 5994 c-256 -146 -469 -269 -475 -275 -5 -5 170 -9 473 -9 l482
0 0 275 c0 151 -3 275 -7 275 -5 -1 -217 -120 -473 -266z"/>
<path d="M5120 5986 l0 -276 482 0 c401 0 480 2 468 13 -16 14 -907 523 -934
533 -14 6 -16 -22 -16 -270z"/>
<path d="M4080 5674 c0 -9 411 -968 419 -976 3 -3 133 216 288 488 l282 494
-495 0 c-272 0 -494 -3 -494 -6z"/>
<path d="M5413 5186 c155 -272 285 -491 288 -488 8 8 419 967 419 976 0 3
-222 6 -494 6 l-495 0 282 -494z"/>
<path d="M4813 5165 l-282 -495 569 0 569 0 -282 495 c-155 272 -284 494 -287
494 -3 0 -132 -222 -287 -494z"/>
<path d="M4070 5063 l0 -541 203 68 c143 48 201 72 199 81 -4 17 -381 897
-393 919 -5 8 -9 -222 -9 -527z"/>
<path d="M5928 5143 c-108 -252 -198 -464 -200 -472 -2 -9 56 -33 200 -81
l202 -68 0 539 c0 296 -1 539 -3 539 -2 0 -92 -206 -199 -457z"/>
<path d="M4282 4563 l-194 -65 404 -230 c568 -324 534 -305 517 -282 -61 87
-515 644 -523 643 -6 0 -98 -30 -204 -66z"/>
<path d="M4547 4618 c145 -186 547 -683 553 -683 6 0 408 497 553 683 7 9
-105 12 -553 12 -448 0 -560 -3 -553 -12z"/>
<path d="M5474 4343 c-126 -158 -246 -309 -268 -335 l-38 -49 33 20 c55 31
872 497 893 508 15 9 -17 22 -180 77 -109 36 -202 66 -205 66 -3 0 -108 -129
-235 -287z"/>
</g>
</svg>
