<svg class="blindgeye" xmlns="http://www.w3.org/2000/svg" viewBox="0 0 34 20">
  <path class="blindgeye__border" fill="black" d="M 0 10 C 11 23 23 23 34 10 C 23 -3 11 -3 0 10" />
  <path class="blindgeye__sclera" fill="white" d="M 2 10 C 11 21 23 21 32 10 C 23 -1 11 -1 2 10" />
  <path class="blindgeye__iris-outter" fill="black" d="M 10 10 A 1 1 0 0 0 24 10 A 1 1 0 0 0 10 10" />
  <path class="blindgeye__iris-inner" fill="rgb(206, 143, 209)" d="M 11 10 A 1 1 0 0 0 23 10 A 1 1 0 0 0 11 10" />
  <g class="blindgeye__pupil" fill="none" stroke="white" stroke-width="0.25">
    <!-- pupil die -->
    <path fill="black" d="M 17 6 L 20.5 8 L 20.5 12 L 17 14 L 13.5 12 L 13.5 8 L 17 6" />
    <!-- inner outlines -->
    <path d="M 17 8 L 19 11.5 L 15 11.5 L 17 8 M 17 8 L 17 6 M 17 8 L 20.5 8 M 17 8 L 13.5 8 M 15 11.5 L 13.5 12 M 15 11.5 L 13.5 8 M 15 11.5 L 17 14 M 19 11.5 L 20.5 12 M 19 11.5 L 20.5 8 M 19 11.5 L 17 14" />
  </g>
</svg>