<svg class="blindgeye-logo" xmlns="http://www.w3.org/2000/svg" viewBox="0 0 34 20">
  <path class="blindgeye-logo__border" fill="black" d="M 0 10 C 11 23 23 23 34 10 C 23 -3 11 -3 0 10" />
  <path class="blindgeye-logo__sclera" fill="white" d="M 2 10 C 11 21 23 21 32 10 C 23 -1 11 -1 2 10" />
  <path class="blindgeye-logo__iris-outter" fill="black" d="M 10 10 A 1 1 0 0 0 24 10 A 1 1 0 0 0 10 10" />
  <path class="blindgeye-logo__iris-inner" fill="rgb(206, 143, 209)" d="M 11 10 A 1 1 0 0 0 23 10 A 1 1 0 0 0 11 10" />
</svg>